<?xml version="1.0" ?><svg style="fill:rgba(210, 77, 87, 1)" data-name="Layer 1" id="Layer_1" viewBox="0 0 512 512" xmlns="http://www.w3.org/2000/svg"><path d="M446.56,414.42a36.53,36.53,0,1,0-41.93,0,64.2,64.2,0,0,0-37.8,35.31A64.2,64.2,0,0,0,329,414.42a36.53,36.53,0,1,0-41.93,0,64,64,0,0,0-42.9,60.31,5.1,5.1,0,1,0,10.2,0,53.67,53.67,0,0,1,107.33,0,5.1,5.1,0,1,0,10.2,0,53.67,53.67,0,0,1,107.33,0,5.1,5.1,0,1,0,10.2,0A64,64,0,0,0,446.56,414.42ZM281.74,384.55a26.32,26.32,0,1,1,26.33,26.32A26.36,26.36,0,0,1,281.74,384.55Zm117.53,0a26.32,26.32,0,1,1,26.32,26.32A26.35,26.35,0,0,1,399.27,384.55Z"/><path d="M433.94,185.62a3.47,3.47,0,0,0,.31-.44,4,4,0,0,0,.28-.54,68.71,68.71,0,1,0-.59,1Zm0-35.93a58.16,58.16,0,0,1-6,25.73l-47.43-28.61V91.42A58.58,58.58,0,0,1,433.92,149.69Zm-117,0a58.57,58.57,0,0,1,53.41-58.27V208A58.58,58.58,0,0,1,316.9,149.69ZM380.51,208V158.72l42.15,25.43A58.54,58.54,0,0,1,380.51,208Z"/><path d="M295.31,107.53a5.1,5.1,0,0,0-5.1-5.1H238.44a5.1,5.1,0,1,0,0,10.2h51.77A5.1,5.1,0,0,0,295.31,107.53Z"/><path d="M283.48,142.3a5.1,5.1,0,0,0-5.1-5.1H238.44a5.1,5.1,0,1,0,0,10.2h39.94A5.1,5.1,0,0,0,283.48,142.3Z"/><path d="M238.44,172a5.1,5.1,0,0,0,0,10.2H269.5a5.1,5.1,0,1,0,0-10.2Z"/><path d="M317.68,280.7a22.05,22.05,0,0,0-26.9-34.93l-45.37,33.62-30-40.41c-15.07-20.28-31.26-30.82-53.46-34.09a48.36,48.36,0,1,0-56.7-.28,57,57,0,0,0-47.19,56V357a21.32,21.32,0,0,0,21.54,21.22,21,21,0,0,0,11-3.09v99.65a5.1,5.1,0,1,0,10.2,0V278.39a5.1,5.1,0,1,0-10.2,0V357a11.17,11.17,0,0,1-22.34,0V260.64A46.73,46.73,0,0,1,114.92,214h30.43c32.16,0,48,12.44,61.85,31.11l33.06,44.5a5.1,5.1,0,0,0,7.13,1.05L296.85,254a11.81,11.81,0,0,1,16.51,2.64,11.63,11.63,0,0,1-2.05,16.13l-49.8,39.84a29.5,29.5,0,0,1-40.79-4.05l-28.67-34.15a5.1,5.1,0,0,0-9,3.28V474.73a5.1,5.1,0,0,0,10.2,0V291.66l19.67,23.42a39.79,39.79,0,0,0,55,5.46ZM95.61,165.59a38.17,38.17,0,1,1,38.17,38.17A38.22,38.22,0,0,1,95.61,165.59Z"/><path d="M141.54,356.9a5.1,5.1,0,0,0-5.1,5.1V474.73a5.1,5.1,0,0,0,10.2,0V362A5.1,5.1,0,0,0,141.54,356.9Z"/><path d="M459.67,305.1H311.8a5.1,5.1,0,0,0,0,10.2h153a5.1,5.1,0,0,0,5.1-5.1V37.27a5.1,5.1,0,0,0-5.1-5.1H27.64a5.1,5.1,0,0,0-5.1,5.1V238.45a5.1,5.1,0,1,0,10.2,0V42.37H459.67Z"/></svg>