<?xml version="1.0" ?><svg data-name="Слой 1" id="Слой_1" viewBox="0 0 128 128" xmlns="http://www.w3.org/2000/svg"><title/><path d="M126,120H2a2,2,0,0,1-1.73-3l62-108a2,2,0,0,1,3.46,0l62,108a2,2,0,0,1-1.73,3ZM5.45,116h117.1L64,14Z"/><path d="M64,108a8.81,8.81,0,1,1,8.81-8.81A8.82,8.82,0,0,1,64,108Zm0-13.62a4.81,4.81,0,1,0,4.81,4.81A4.82,4.82,0,0,0,64,94.38Z"/><path d="M64,86.33a8.82,8.82,0,0,1-8.81-8.81V52.81a8.81,8.81,0,0,1,17.62,0V77.52A8.82,8.82,0,0,1,64,86.33ZM64,48a4.82,4.82,0,0,0-4.81,4.81V77.52a4.81,4.81,0,0,0,9.62,0V52.81A4.82,4.82,0,0,0,64,48Z"/></svg>