<?xml version="1.0" ?><svg style="enable-background:new 0 0 16 16;" version="1.1" viewBox="0 0 16 16" xml:space="preserve" xmlns="http://www.w3.org/2000/svg" xmlns:xlink="http://www.w3.org/1999/xlink"><g id="Guide"/><g id="Layer_2"><path d="M11.3,10c-0.8,0-1.49,0.48-1.81,1.16L5.91,8.57C5.96,8.39,6,8.2,6,8S5.96,7.61,5.91,7.43l3.58-2.59   C9.81,5.52,10.5,6,11.3,6c1.1,0,2-0.9,2-2s-0.9-2-2-2c-1.01,0-1.84,0.75-1.97,1.72L5.4,6.57C5.03,6.22,4.54,6,4,6C2.9,6,2,6.9,2,8   s0.9,2,2,2c0.54,0,1.03-0.22,1.4-0.57l3.93,2.85C9.46,13.25,10.29,14,11.3,14c1.1,0,2-0.9,2-2S12.4,10,11.3,10z M11.3,3   c0.55,0,1,0.45,1,1s-0.45,1-1,1s-1-0.45-1-1S10.75,3,11.3,3z M4,9C3.45,9,3,8.55,3,8s0.45-1,1-1s1,0.45,1,1S4.55,9,4,9z M11.3,13   c-0.55,0-1-0.45-1-1s0.45-1,1-1s1,0.45,1,1S11.85,13,11.3,13z"/></g></svg>